#!OML:ASF F:\VICON\USERDATA\INSTALL\rory3\rory3.ASF
:FULLY-SPECIFIED
:DEGREES
273
root -2.21744 20.5436 4.07672 1.75084 168.145 -4.46818
lowerback 17.4519 1.47603 -8.98604
upperback 2.60353 0.629334 -4.05878
thorax -6.98945 0.764433 0.536307
lowerneck -12.7368 1.14558 -7.57897
upperneck 26.0709 3.63752 4.66537
head 10.1921 1.98491 3.4857
rclavicle 2.50469e-014 1.11319e-014
rhumerus -29.7686 3.18544 -84.9985
rradius 39.7943
rwrist 16.4166
rhand -34.9984 -0.924116
rfingers 7.12502
rthumb -8.14325 -30.7472
lclavicle 2.50469e-014 1.11319e-014
lhumerus -24.795 19.4824 73.7796
lradius 28.1449
lwrist -2.86928
lhand -23.8397 21.5695
lfingers 7.12502
lthumb 2.63213 51.533
rfemur -36.415 14.9611 13.2905
rtibia 88.7134
rfoot -15.6295 -14.1155
rtoes -9.24481
lfemur -31.4169 13.117 -29.6922
ltibia 60.6053
lfoot -24.185 -7.77831
ltoes 8.00566
274
root -2.21801 20.5978 4.02539 1.4703 168.478 -4.66918
lowerback 17.6447 1.37139 -9.11909
upperback 2.64632 0.459331 -4.0672
thorax -7.03417 0.692344 0.636986
lowerneck -12.6356 1.13442 -7.73645
upperneck 26.0536 3.64287 4.71547
head 10.1622 1.98051 3.52778
rclavicle 1.94809e-014 -2.54444e-014
rhumerus -29.981 2.94351 -84.7389
rradius 39.6571
rwrist 16.1908
rhand -34.9125 -1.1858
rfingers 7.12502
rthumb -8.06028 -31.0121
lclavicle 1.94809e-014 -2.54444e-014
lhumerus -24.5694 19.383 73.9629
lradius 28.1539
lwrist -2.68691
lhand -23.7272 21.5924
lfingers 7.12502
lthumb 2.74083 51.5545
rfemur -37.6607 14.2298 13.1928
rtibia 90.9841
rfoot -16.9422 -15.7629
rtoes -7.97612
lfemur -30.4556 13.0126 -29.8532
ltibia 59.7471
lfoot -23.8603 -7.84449
ltoes 8.50651
275
root -2.21908 20.6638 3.97087 1.16347 168.863 -4.74302
lowerback 17.8722 1.2535 -9.14839
upperback 2.74092 0.294732 -4.01907
thorax -7.04096 0.618251 0.741262
lowerneck -12.6834 1.12588 -7.81645
upperneck 26.0893 3.66219 4.68984
head 10.183 1.97821 3.53716
rclavicle -5.32743e-014 2.54444e-014
rhumerus -30.1498 2.68288 -84.4068
rradius 39.5135
rwrist 16.1675
rhand -34.8978 -0.874982
rfingers 7.12502
rthumb -8.04615 -30.7018
lclavicle -5.32743e-014 2.54444e-014
lhumerus -24.2395 19.4076 74.1892
lradius 28.0849
lwrist -2.61311
lhand -23.8686 21.0812
lfingers 7.12502
lthumb 2.6043 51.045
rfemur -38.6951 13.4268 13.2679
rtibia 93.0518
rfoot -18.2403 -17.063
rtoes -6.81783
lfemur -29.5003 12.9597 -29.8604
ltibia 58.9066
lfoot -23.4893 -7.74076
ltoes 8.00384
276
root -2.22074 20.7354 3.92103 0.86636 169.23 -4.85273
lowerback 18.1342 1.14734 -9.2142
upperback 2.82279 0.134239 -3.99528
thorax -7.07964 0.549417 0.838037
lowerneck -12.6919 1.12932 -7.79115
upperneck 26.0704 3.68474 4.58988
head 10.1798 1.97859 3.49917
rclavicle -7.55382e-015 -2.22639e-014
rhumerus -30.361 2.46753 -84.1218
rradius 39.4439
rwrist 16.102
rhand -35.0349 -0.664187
rfingers 7.12502
rthumb -8.17849 -30.4859
lclavicle -7.55382e-015 -2.22639e-014
lhumerus -23.9029 19.4757 74.381
lradius 28.0181
lwrist -2.66523
lhand -23.9877 20.6548
lfingers 7.12502
lthumb 2.48923 50.6201
rfemur -39.7013 12.4872 13.2779
rtibia 95.008
rfoot -19.5896 -17.9166
rtoes -5.42663
lfemur -28.6449 12.9222 -29.9165
ltibia 58.0986
lfoot -23.0612 -7.45905
ltoes 6.54561
277
root -2.22115 20.7926 3.87406 0.588118 169.559 -4.99961
lowerback 18.3677 1.06417 -9.27661
upperback 2.84726 -0.00324849 -4.01234
thorax -7.1672 0.492834 0.883066
lowerneck -12.3848 1.13694 -7.80259
upperneck 25.8984 3.67389 4.57752
head 10.0587 1.97586 3.48076
rclavicle 1.19271e-014 6.99722e-014
rhumerus -30.7109 2.18606 -83.8802
rradius 39.4321
rwrist 15.9567
rhand -35.0348 -0.617121
rfingers 7.12502
rthumb -8.17837 -30.4388
lclavicle 1.19271e-014 6.99722e-014
lhumerus -23.7787 19.3464 74.515
lradius 28.0976
lwrist -2.73047
lhand -23.9185 20.3698
lfingers 7.12502
lthumb 2.55607 50.3343
rfemur -40.7712 11.5136 13.2414
rtibia 96.9414
rfoot -21.0337 -18.448
rtoes -4.35207
lfemur -27.7579 12.8788 -30.0201
ltibia 57.2963
lfoot -22.6454 -7.36378
ltoes 5.89656
